<?xml version="1.0" encoding="UTF-8"?>
<svg width="423px" height="120px" viewBox="0 0 423 120" version="1.1" xmlns="http://www.w3.org/2000/svg" xmlns:xlink="http://www.w3.org/1999/xlink">
    <!-- Generator: Sketch 42 (36781) - http://www.bohemiancoding.com/sketch -->
    <title>Group</title>
    <desc>Created with Sketch.</desc>
    <defs>
        <linearGradient x1="100%" y1="92.7115885%" x2="0%" y2="4.33919271%" id="linearGradient-1">
            <stop stop-color="#FF6B54" offset="0%"></stop>
            <stop stop-color="#FF804E" offset="100%"></stop>
        </linearGradient>
        <path d="M0,3.99261475 C0,1.78755451 1.78337097,0 3.99132426,0 L396.008676,0 C398.213023,0 400,1.78946078 400,3.99261475 L400,116.007385 C400,118.212445 398.216629,120 396.008676,120 L3.99132426,120 C1.78697674,120 0,118.210539 0,116.007385 L0,3.99261475 Z" id="path-2"></path>
        <linearGradient x1="13.1755097%" y1="86.0259791%" x2="13.1755099%" y2="-18.600382%" id="linearGradient-4">
            <stop stop-color="#FF6B54" offset="0%"></stop>
            <stop stop-color="#FFAB6F" offset="100%"></stop>
        </linearGradient>
    </defs>
    <g id="Page-1" stroke="none" stroke-width="1" fill="none" fill-rule="evenodd">
        <g id="Group">
            <g id="底">
                <mask id="mask-3" fill="white">
                    <use xlink:href="#path-2"></use>
                </mask>
                <use id="Rectangle-9-Copy" fill="url(#linearGradient-1)" xlink:href="#path-2"></use>
                <g id="Page-1" opacity="0.200000003" mask="url(#mask-3)" fill="#FFAC6F">
                    <g transform="translate(209.679455, -23.701826) rotate(-135.000000) translate(-209.679455, 23.701826) translate(198.679455, -87.201826)" id="Fill-1">
                        <path d="M10.7518552,-7.58620693e-05 L10.7518552,-7.58620693e-05 C4.81413103,-7.58620693e-05 -7.58620695e-05,4.81413103 -7.58620695e-05,10.7526138 L-7.58620695e-05,75.9370966 L-7.58620695e-05,104.02351 C-7.58620695e-05,105.210752 0.963372414,106.1742 2.15061379,106.1742 C3.33861379,106.1742 4.30054483,105.210752 4.30054483,104.02351 L4.30054483,73.0186828 C4.30054483,71.8314414 5.2639931,70.8679931 6.45123448,70.8679931 C7.63847586,70.8679931 8.60192414,71.8314414 8.60192414,73.0186828 L8.60192414,117.183303 C8.60192414,118.370545 9.56461379,119.333993 10.7518552,119.333993 C11.9390966,119.333993 12.9025448,118.370545 12.9025448,117.183303 L12.9025448,116.993648 L12.9025448,57.6566138 C12.9025448,56.4693724 13.8652345,55.5059241 15.0532345,55.5059241 C16.2404759,55.5059241 17.2031655,56.4693724 17.2031655,57.6566138 L17.2031655,91.8855793 C17.2031655,93.0735793 18.1658552,94.036269 19.3538552,94.036269 C20.5410966,94.036269 21.5045448,93.0735793 21.5045448,91.8855793 L21.5045448,66.8336483 L21.5045448,10.7526138 C21.5045448,4.81413103 16.6903379,-7.58620693e-05 10.7518552,-7.58620693e-05"></path>
                    </g>
                </g>
                <g id="Page-1-Copy-3" opacity="0.200000003" mask="url(#mask-3)" fill="#FFAC6F">
                    <g transform="translate(293.133514, 29.575455) rotate(-135.000000) translate(-293.133514, -29.575455) translate(284.133514, -22.424545)">
                        <path d="M8.79697241,-6.20689657e-05 L8.79697241,-6.20689657e-05 C3.93883448,-6.20689657e-05 -6.20689661e-05,3.93883448 -6.20689661e-05,8.7975931 L-6.20689661e-05,62.1303517 L-6.20689661e-05,85.1101448 C-6.20689661e-05,86.0815241 0.788213793,86.8698 1.7595931,86.8698 C2.7315931,86.8698 3.51862759,86.0815241 3.51862759,85.1101448 L3.51862759,59.7425586 C3.51862759,58.7711793 4.30690345,57.9829034 5.27828276,57.9829034 C6.24966207,57.9829034 7.03793793,58.7711793 7.03793793,59.7425586 L7.03793793,95.8772483 C7.03793793,96.8486276 7.8255931,97.6369034 8.79697241,97.6369034 C9.76835172,97.6369034 10.5566276,96.8486276 10.5566276,95.8772483 L10.5566276,95.7220759 L10.5566276,47.1735931 C10.5566276,46.2022138 11.3442828,45.4139379 12.3162828,45.4139379 C13.2876621,45.4139379 14.0753172,46.2022138 14.0753172,47.1735931 L14.0753172,75.1791103 C14.0753172,76.1511103 14.8629724,76.9387655 15.8349724,76.9387655 C16.8063517,76.9387655 17.5946276,76.1511103 17.5946276,75.1791103 L17.5946276,54.6820759 L17.5946276,8.7975931 C17.5946276,3.93883448 13.655731,-6.20689657e-05 8.79697241,-6.20689657e-05" id="Fill-1"></path>
                        <path d="M1.75965517,88.7003379 C0.788275862,88.7003379 -3.97903932e-13,89.4879931 -3.97903932e-13,90.4593724 L-3.97903932e-13,92.600131 C-3.97903932e-13,93.572131 0.788275862,94.3591655 1.75965517,94.3591655 C2.73103448,94.3591655 3.51868966,93.572131 3.51868966,92.600131 L3.51868966,90.4593724 C3.51868966,89.4879931 2.73103448,88.7003379 1.75965517,88.7003379" id="Fill-4"></path>
                        <path d="M15.8349103,79.1221034 C14.863531,79.1221034 14.0752552,79.9097586 14.0752552,80.8811379 L14.0752552,82.0846552 C14.0752552,83.0566552 14.863531,83.8443103 15.8349103,83.8443103 C16.8062897,83.8443103 17.5945655,83.0566552 17.5945655,82.0846552 L17.5945655,80.8811379 C17.5945655,79.9097586 16.8062897,79.1221034 15.8349103,79.1221034" id="Fill-9"></path>
                    </g>
                </g>
                <g id="Page-1-Copy" opacity="0.200000003" mask="url(#mask-3)" fill="#FFAC6F">
                    <g transform="translate(-22.732973, 91.150911) rotate(-135.000000) translate(22.732973, -91.150911) translate(-40.732973, -12.849089)">
                        <path d="M17.5939448,-0.000124137932 L17.5939448,-0.000124137932 C7.87766897,-0.000124137932 -0.000124137933,7.87766897 -0.000124137933,17.5951862 L-0.000124137933,124.260703 L-0.000124137933,170.22029 C-0.000124137933,172.163048 1.57642759,173.7396 3.51918621,173.7396 C5.46318621,173.7396 7.03725517,172.163048 7.03725517,170.22029 L7.03725517,119.485117 C7.03725517,117.542359 8.6138069,115.965807 10.5565655,115.965807 C12.4993241,115.965807 14.0758759,117.542359 14.0758759,119.485117 L14.0758759,191.754497 C14.0758759,193.697255 15.6511862,195.273807 17.5939448,195.273807 C19.5367034,195.273807 21.1132552,193.697255 21.1132552,191.754497 L21.1132552,191.444152 L21.1132552,94.3471862 C21.1132552,92.4044276 22.6885655,90.8278759 24.6325655,90.8278759 C26.5753241,90.8278759 28.1506345,92.4044276 28.1506345,94.3471862 L28.1506345,150.358221 C28.1506345,152.302221 29.7259448,153.877531 31.6699448,153.877531 C33.6127034,153.877531 35.1892552,152.302221 35.1892552,150.358221 L35.1892552,109.364152 L35.1892552,17.5951862 C35.1892552,7.87766897 27.3114621,-0.000124137932 17.5939448,-0.000124137932" id="Fill-1"></path>
                        <path d="M3.51931034,177.400676 C1.57655172,177.400676 -2.7000624e-12,178.975986 -2.7000624e-12,180.918745 L-2.7000624e-12,185.200262 C-2.7000624e-12,187.144262 1.57655172,188.718331 3.51931034,188.718331 C5.46206897,188.718331 7.03737931,187.144262 7.03737931,185.200262 L7.03737931,180.918745 C7.03737931,178.975986 5.46206897,177.400676 3.51931034,177.400676" id="Fill-4"></path>
                        <path d="M17.64,200.055848 C15.6972414,200.055848 14.1206897,201.631159 14.1206897,203.573917 C14.1206897,205.516676 15.6972414,207.093228 17.64,207.093228 C19.5827586,207.093228 21.158069,205.516676 21.158069,203.573917 C21.158069,201.631159 19.5827586,200.055848 17.64,200.055848" id="Fill-6"></path>
                        <path d="M31.6698207,158.244207 C29.7270621,158.244207 28.1505103,159.819517 28.1505103,161.762276 L28.1505103,164.16931 C28.1505103,166.11331 29.7270621,167.688621 31.6698207,167.688621 C33.6125793,167.688621 35.189131,166.11331 35.189131,164.16931 L35.189131,161.762276 C35.189131,159.819517 33.6125793,158.244207 31.6698207,158.244207" id="Fill-9"></path>
                    </g>
                </g>
                <g id="Page-1-Copy-2" opacity="0.300000012" mask="url(#mask-3)" fill="url(#linearGradient-4)">
                    <g transform="translate(311.260038, 120.083261) scale(-1, -1) rotate(-135.000000) translate(-311.260038, -120.083261) translate(301.260038, 62.083261)" id="Fill-1">
                        <path d="M9.77441379,-6.89655181e-05 L9.77441379,-6.89655181e-05 C4.37648276,-6.89655181e-05 -6.89655177e-05,4.37648276 -6.89655177e-05,9.77510345 L-6.89655177e-05,69.0337241 L-6.89655177e-05,94.5668276 C-6.89655177e-05,95.6461379 0.875793103,96.522 1.95510345,96.522 C3.03510345,96.522 3.90958621,95.6461379 3.90958621,94.5668276 L3.90958621,66.3806207 C3.90958621,65.3013103 4.78544828,64.4254483 5.86475862,64.4254483 C6.94406897,64.4254483 7.81993103,65.3013103 7.81993103,66.3806207 L7.81993103,106.530276 C7.81993103,107.609586 8.69510345,108.485448 9.77441379,108.485448 C10.8537241,108.485448 11.7295862,107.609586 11.7295862,106.530276 L11.7295862,106.357862 L11.7295862,52.4151034 C11.7295862,51.3357931 12.6047586,50.459931 13.6847586,50.459931 C14.764069,50.459931 15.6392414,51.3357931 15.6392414,52.4151034 L15.6392414,83.5323448 C15.6392414,84.6123448 16.5144138,85.4875172 17.5944138,85.4875172 C18.6737241,85.4875172 19.5495862,84.6123448 19.5495862,83.5323448 L19.5495862,60.7578621 L19.5495862,9.77510345 C19.5495862,4.37648276 15.1730345,-6.89655181e-05 9.77441379,-6.89655181e-05"></path>
                    </g>
                </g>
                <g id="Page-1-Copy-4" opacity="0.400000006" mask="url(#mask-3)" fill="#FFAC6F">
                    <g transform="translate(120.175144, 116.638718) rotate(-135.000000) translate(-120.175144, -116.638718) translate(106.175144, 35.638718)">
                        <path d="M13.6841793,-9.65517247e-05 L13.6841793,-9.65517247e-05 C6.12707586,-9.65517247e-05 -9.6551725e-05,6.12707586 -9.6551725e-05,13.6851448 L-9.6551725e-05,96.6472138 L-9.6551725e-05,132.393559 C-9.6551725e-05,133.904593 1.22611034,135.1308 2.73714483,135.1308 C4.24914483,135.1308 5.47342069,133.904593 5.47342069,132.393559 L5.47342069,92.932869 C5.47342069,91.4218345 6.69962759,90.1956276 8.21066207,90.1956276 C9.72169655,90.1956276 10.9479034,91.4218345 10.9479034,92.932869 L10.9479034,149.142386 C10.9479034,150.653421 12.1731448,151.879628 13.6841793,151.879628 C15.1952138,151.879628 16.4214207,150.653421 16.4214207,149.142386 L16.4214207,148.901007 L16.4214207,73.3811448 C16.4214207,71.8701103 17.6466621,70.6439034 19.1586621,70.6439034 C20.6696966,70.6439034 21.8949379,71.8701103 21.8949379,73.3811448 L21.8949379,116.945283 C21.8949379,118.457283 23.1201793,119.682524 24.6321793,119.682524 C26.1432138,119.682524 27.3694207,118.457283 27.3694207,116.945283 L27.3694207,85.0610069 L27.3694207,13.6851448 C27.3694207,6.12707586 21.2422483,-9.65517247e-05 13.6841793,-9.65517247e-05" id="Fill-1"></path>
                        <path d="M2.73724138,137.978303 C1.2262069,137.978303 -2.84217094e-13,139.203545 -2.84217094e-13,140.714579 L-2.84217094e-13,144.044648 C-2.84217094e-13,145.556648 1.2262069,146.780924 2.73724138,146.780924 C4.24827586,146.780924 5.47351724,145.556648 5.47351724,144.044648 L5.47351724,140.714579 C5.47351724,139.203545 4.24827586,137.978303 2.73724138,137.978303" id="Fill-4"></path>
                        <path d="M13.72,155.598993 C12.2089655,155.598993 10.9827586,156.824234 10.9827586,158.335269 C10.9827586,159.846303 12.2089655,161.07251 13.72,161.07251 C15.2310345,161.07251 16.4562759,159.846303 16.4562759,158.335269 C16.4562759,156.824234 15.2310345,155.598993 13.72,155.598993" id="Fill-6"></path>
                        <path d="M24.6320828,123.078828 C23.1210483,123.078828 21.8948414,124.304069 21.8948414,125.815103 L21.8948414,127.687241 C21.8948414,129.199241 23.1210483,130.424483 24.6320828,130.424483 C26.1431172,130.424483 27.3693241,129.199241 27.3693241,127.687241 L27.3693241,125.815103 C27.3693241,124.304069 26.1431172,123.078828 24.6320828,123.078828" id="Fill-9"></path>
                    </g>
                </g>
            </g>
            <path d="M407,24 L422.345411,37.6688501 C423.170757,38.4040239 423.1693,39.5972742 422.345411,40.3311499 L407,54 L407,24 Z" id="Rectangle-9-Copy-2" fill="url(#linearGradient-1)"></path>
        </g>
    </g>
</svg>